<svg xmlns="http://www.w3.org/2000/svg" viewBox="0 0 188.656 109.762" role="img" aria-label="AXON Mind-Muscle">
<g transform="translate(-34.871 -175.418)">
<path fill="currentColor" fill-rule="nonzero" d="M 51.613281 179.683594 C 42.367188 179.683594 34.875 187.179688 34.875 196.425781 C 34.875 205.671875 42.367188 213.164062 51.613281 213.164062 C 59.722656 213.164062 66.699219 207.332031 68.101562 199.339844 L 68.4375 197.425781 L 86.929688 197.425781 L 86.929688 216.355469 C 86.929688 216.941406 87.417969 217.429688 88.003906 217.429688 C 88.589844 217.429688 89.074219 216.941406 89.074219 216.355469 L 89.074219 197.425781 L 105.117188 197.425781 L 105.117188 209.105469 C 105.117188 209.691406 105.605469 210.175781 106.191406 210.175781 C 106.777344 210.175781 107.265625 209.691406 107.265625 209.105469 L 107.265625 197.425781 L 159.863281 197.425781 L 159.863281 209.105469 C 159.863281 209.691406 160.351562 210.175781 160.9375 210.175781 C 161.523438 210.175781 162.011719 209.691406 162.011719 209.105469 L 162.011719 197.425781 L 178.691406 197.425781 L 178.691406 216.355469 C 178.691406 216.941406 179.179688 217.429688 179.765625 217.429688 C 180.351562 217.429688 180.839844 216.941406 180.839844 216.355469 L 180.839844 197.425781 L 189.964844 197.425781 L 190.300781 199.339844 C 191.707031 207.332031 198.679688 213.164062 206.789062 213.164062 C 216.035156 213.164062 223.527344 205.671875 223.527344 196.425781 C 223.527344 187.179688 216.035156 179.683594 206.789062 179.683594 C 198.679688 179.683594 191.707031 185.515625 190.300781 193.507812 L 189.964844 195.425781 L 180.839844 195.425781 L 180.839844 176.492188 C 180.839844 175.90625 180.351562 175.417969 179.765625 175.417969 C 179.179688 175.417969 178.691406 175.90625 178.691406 176.492188 L 178.691406 195.425781 L 162.011719 195.425781 L 162.011719 183.746094 C 162.011719 183.15625 161.523438 182.671875 160.9375 182.671875 C 160.351562 182.671875 159.863281 183.160156 159.863281 183.746094 L 159.863281 195.425781 L 107.265625 195.425781 L 107.265625 183.746094 C 107.265625 183.15625 106.777344 182.671875 106.191406 182.671875 C 105.605469 182.671875 105.117188 183.160156 105.117188 183.746094 L 105.117188 195.425781 L 89.074219 195.425781 L 89.074219 176.492188 C 89.074219 175.90625 88.589844 175.417969 88.003906 175.417969 C 87.417969 175.417969 86.929688 175.90625 86.929688 176.492188 L 86.929688 195.425781 L 68.4375 195.425781 L 68.101562 193.507812 C 66.699219 185.515625 59.722656 179.683594 51.613281 179.683594 Z M 35.878906 196.425781 C 35.878906 187.734375 42.925781 180.6875 51.613281 180.6875 C 60.304688 180.6875 67.347656 187.734375 67.347656 196.425781 C 67.347656 205.113281 60.304688 212.160156 51.613281 212.160156 C 42.925781 212.160156 35.878906 205.113281 35.878906 196.425781 "/>
<path fill="#307FE2" fill-rule="nonzero" d="M 129.15625 189.945312 C 132.734375 189.945312 135.636719 192.84375 135.636719 196.425781 C 135.636719 200.003906 132.734375 202.902344 129.15625 202.902344 C 125.578125 202.902344 122.675781 200.003906 122.675781 196.425781 C 122.675781 192.84375 125.578125 189.945312 129.15625 189.945312 "/>
<path fill="currentColor" fill-rule="nonzero" d="M 34.871094 270.210938 L 52.773438 225.074219 L 61.851562 225.074219 L 79.5625 270.210938 L 68.949219 270.210938 L 55.394531 232.746094 L 59.039062 232.746094 L 45.292969 270.210938 Z M 45.039062 262.027344 L 45.039062 253.84375 L 69.652344 253.84375 L 69.652344 262.027344 Z M 113.59375 270.210938 L 100.996094 250.074219 L 99.78125 250.074219 L 82.390625 225.074219 L 94.347656 225.074219 L 106.75 244 L 107.964844 244 L 125.355469 270.210938 Z M 81.5625 270.210938 L 98.246094 246.042969 L 105.984375 250.390625 L 93.003906 270.210938 Z M 108.347656 248.921875 L 100.613281 244.574219 L 113.144531 225.074219 L 124.589844 225.074219 Z M 152.542969 270.980469 C 149.132812 270.980469 145.988281 270.382812 143.113281 269.191406 C 140.234375 267.996094 137.710938 266.332031 135.535156 264.203125 C 133.363281 262.070312 131.679688 259.589844 130.484375 256.753906 C 129.292969 253.917969 128.695312 250.863281 128.695312 247.578125 C 128.695312 244.253906 129.292969 241.183594 130.484375 238.371094 C 131.679688 235.558594 133.339844 233.097656 135.472656 230.988281 C 137.605469 228.878906 140.109375 227.238281 142.984375 226.066406 C 145.863281 224.894531 149.003906 224.308594 152.414062 224.308594 C 155.78125 224.308594 158.90625 224.894531 161.78125 226.066406 C 164.660156 227.238281 167.171875 228.878906 169.324219 230.988281 C 171.480469 233.097656 173.152344 235.570312 174.34375 238.40625 C 175.539062 241.238281 176.136719 244.316406 176.136719 247.644531 C 176.136719 250.925781 175.539062 253.984375 174.34375 256.816406 C 173.152344 259.652344 171.488281 262.125 169.359375 264.234375 C 167.226562 266.34375 164.722656 267.996094 161.84375 269.191406 C 158.96875 270.382812 155.867188 270.980469 152.542969 270.980469 Z M 152.414062 261.835938 C 155.101562 261.835938 157.457031 261.238281 159.480469 260.046875 C 161.503906 258.851562 163.070312 257.179688 164.179688 255.027344 C 165.289062 252.875 165.839844 250.390625 165.839844 247.578125 C 165.839844 245.449219 165.523438 243.519531 164.882812 241.792969 C 164.242188 240.066406 163.328125 238.574219 162.132812 237.316406 C 160.941406 236.058594 159.523438 235.101562 157.882812 234.441406 C 156.242188 233.78125 154.417969 233.449219 152.414062 233.449219 C 149.730469 233.449219 147.375 234.035156 145.351562 235.207031 C 143.324219 236.378906 141.757812 238.019531 140.652344 240.132812 C 139.542969 242.238281 138.988281 244.722656 138.988281 247.578125 C 138.988281 249.710938 139.308594 251.648438 139.949219 253.398438 C 140.585938 255.144531 141.492188 256.648438 142.664062 257.90625 C 143.835938 259.160156 145.253906 260.132812 146.917969 260.8125 C 148.578125 261.496094 150.414062 261.835938 152.414062 261.835938 Z M 185.035156 270.210938 L 185.035156 225.074219 L 192.070312 225.074219 L 195.074219 234.089844 L 195.074219 270.210938 Z M 216.171875 270.210938 L 189.578125 236.136719 L 192.070312 225.074219 L 218.667969 259.152344 Z M 216.171875 270.210938 L 213.488281 261.199219 L 213.488281 225.074219 L 223.527344 225.074219 L 223.527344 270.210938 Z M 216.171875 270.210938 "/>
<path fill="#307FE2" fill-rule="nonzero" d="M 37.160156 284.316406 L 36.121094 280.003906 L 36.214844 279.992188 L 36.214844 285.046875 L 35.359375 285.046875 L 35.359375 279.019531 L 36.546875 279.019531 L 37.667969 283.59375 L 37.328125 283.59375 L 38.449219 279.019531 L 39.636719 279.019531 L 39.636719 285.046875 L 38.78125 285.046875 L 38.78125 279.992188 L 38.871094 280.003906 L 37.839844 284.316406 Z M 53.742188 285.046875 L 53.742188 284.207031 L 55.183594 284.207031 L 55.183594 279.859375 L 53.742188 279.859375 L 53.742188 279.019531 L 57.511719 279.019531 L 57.511719 279.859375 L 56.066406 279.859375 L 56.066406 284.207031 L 57.511719 284.207031 L 57.511719 285.046875 Z M 71.785156 285.046875 L 71.785156 279.019531 L 72.871094 279.019531 L 75 284.136719 L 74.847656 284.171875 L 74.847656 279.019531 L 75.722656 279.019531 L 75.722656 285.046875 L 74.636719 285.046875 L 72.507812 279.925781 L 72.660156 279.882812 L 72.660156 285.046875 Z M 90.039062 285.046875 L 90.039062 279.019531 L 91.507812 279.019531 C 92.039062 279.019531 92.503906 279.136719 92.898438 279.371094 C 93.289062 279.605469 93.59375 279.949219 93.804688 280.398438 C 94.015625 280.847656 94.125 281.394531 94.125 282.039062 C 94.125 282.6875 94.015625 283.230469 93.804688 283.679688 C 93.59375 284.125 93.289062 284.464844 92.898438 284.695312 C 92.503906 284.929688 92.039062 285.046875 91.507812 285.046875 Z M 90.933594 284.207031 L 91.484375 284.207031 C 92.03125 284.207031 92.457031 284.023438 92.753906 283.664062 C 93.050781 283.304688 93.199219 282.765625 93.199219 282.039062 C 93.199219 281.316406 93.050781 280.769531 92.753906 280.40625 C 92.457031 280.039062 92.03125 279.859375 91.484375 279.859375 L 90.933594 279.859375 Z M 130.046875 284.316406 L 129.011719 280.003906 L 129.105469 279.992188 L 129.105469 285.046875 L 128.246094 285.046875 L 128.246094 279.019531 L 129.433594 279.019531 L 130.554688 283.59375 L 130.214844 283.59375 L 131.335938 279.019531 L 132.523438 279.019531 L 132.523438 285.046875 L 131.667969 285.046875 L 131.667969 279.992188 L 131.761719 280.003906 L 130.726562 284.316406 Z M 148.511719 285.179688 C 147.867188 285.179688 147.367188 284.984375 147.003906 284.585938 C 146.640625 284.191406 146.460938 283.644531 146.460938 282.949219 L 146.460938 279.019531 L 147.351562 279.019531 L 147.351562 282.980469 C 147.351562 283.421875 147.449219 283.761719 147.648438 283.996094 C 147.84375 284.230469 148.132812 284.347656 148.511719 284.347656 C 148.894531 284.347656 149.179688 284.230469 149.378906 283.996094 C 149.578125 283.761719 149.675781 283.421875 149.675781 282.980469 L 149.675781 279.019531 L 150.566406 279.019531 L 150.566406 282.949219 C 150.566406 283.644531 150.386719 284.191406 150.023438 284.585938 C 149.664062 284.984375 149.160156 285.179688 148.511719 285.179688 Z M 166.71875 285.179688 C 166.28125 285.179688 165.902344 285.09375 165.574219 284.917969 C 165.25 284.742188 164.992188 284.496094 164.800781 284.183594 C 164.605469 283.867188 164.492188 283.503906 164.460938 283.085938 L 165.378906 283.023438 C 165.417969 283.3125 165.496094 283.558594 165.613281 283.753906 C 165.734375 283.953125 165.890625 284.101562 166.082031 284.199219 C 166.273438 284.300781 166.496094 284.347656 166.753906 284.347656 C 167 284.347656 167.210938 284.316406 167.378906 284.25 C 167.550781 284.1875 167.679688 284.09375 167.769531 283.96875 C 167.859375 283.84375 167.90625 283.691406 167.90625 283.507812 C 167.90625 283.328125 167.863281 283.171875 167.777344 283.042969 C 167.695312 282.910156 167.542969 282.792969 167.320312 282.679688 C 167.097656 282.570312 166.777344 282.457031 166.351562 282.335938 C 165.9375 282.222656 165.601562 282.09375 165.34375 281.949219 C 165.082031 281.804688 164.890625 281.628906 164.773438 281.417969 C 164.65625 281.203125 164.59375 280.941406 164.59375 280.632812 C 164.59375 280.285156 164.675781 279.980469 164.839844 279.71875 C 165 279.453125 165.230469 279.25 165.535156 279.101562 C 165.835938 278.957031 166.199219 278.882812 166.625 278.882812 C 167.042969 278.882812 167.402344 278.964844 167.699219 279.128906 C 167.996094 279.292969 168.230469 279.519531 168.402344 279.8125 C 168.574219 280.101562 168.683594 280.445312 168.722656 280.835938 L 167.804688 280.886719 C 167.777344 280.652344 167.710938 280.449219 167.613281 280.273438 C 167.515625 280.097656 167.378906 279.960938 167.210938 279.863281 C 167.042969 279.761719 166.835938 279.714844 166.597656 279.714844 C 166.265625 279.714844 166 279.792969 165.804688 279.953125 C 165.609375 280.109375 165.511719 280.320312 165.511719 280.589844 C 165.511719 280.757812 165.550781 280.902344 165.632812 281.015625 C 165.710938 281.132812 165.851562 281.234375 166.046875 281.324219 C 166.246094 281.410156 166.523438 281.503906 166.878906 281.605469 C 167.359375 281.738281 167.742188 281.890625 168.027344 282.0625 C 168.308594 282.234375 168.511719 282.4375 168.636719 282.667969 C 168.761719 282.902344 168.824219 283.179688 168.824219 283.507812 C 168.824219 283.835938 168.734375 284.128906 168.558594 284.382812 C 168.386719 284.636719 168.140625 284.835938 167.824219 284.972656 C 167.511719 285.113281 167.140625 285.179688 166.71875 285.179688 Z M 184.796875 285.179688 C 184.308594 285.179688 183.898438 285.054688 183.558594 284.800781 C 183.222656 284.542969 182.96875 284.183594 182.792969 283.710938 C 182.617188 283.242188 182.527344 282.6875 182.527344 282.039062 C 182.527344 281.390625 182.617188 280.828125 182.792969 280.359375 C 182.96875 279.890625 183.222656 279.523438 183.558594 279.269531 C 183.898438 279.011719 184.308594 278.882812 184.796875 278.882812 C 185.34375 278.882812 185.808594 279.0625 186.183594 279.425781 C 186.558594 279.789062 186.808594 280.292969 186.925781 280.945312 L 185.992188 280.996094 C 185.90625 280.578125 185.757812 280.257812 185.546875 280.039062 C 185.335938 279.824219 185.082031 279.714844 184.796875 279.714844 C 184.5 279.714844 184.253906 279.804688 184.058594 279.984375 C 183.859375 280.167969 183.707031 280.429688 183.605469 280.773438 C 183.503906 281.121094 183.453125 281.542969 183.453125 282.039062 C 183.453125 282.53125 183.503906 282.949219 183.605469 283.292969 C 183.707031 283.632812 183.859375 283.894531 184.058594 284.078125 C 184.253906 284.257812 184.5 284.347656 184.796875 284.347656 C 185.105469 284.347656 185.371094 284.230469 185.59375 283.992188 C 185.816406 283.753906 185.960938 283.40625 186.035156 282.949219 L 186.960938 282.992188 C 186.859375 283.679688 186.617188 284.21875 186.238281 284.605469 C 185.859375 284.988281 185.378906 285.179688 184.796875 285.179688 Z M 201.183594 285.046875 L 201.183594 279.019531 L 202.074219 279.019531 L 202.074219 284.707031 L 201.53125 284.207031 L 204.953125 284.207031 L 204.953125 285.046875 Z M 219.226562 285.046875 L 219.226562 279.019531 L 222.929688 279.019531 L 222.929688 279.859375 L 220.117188 279.859375 L 220.117188 281.617188 L 222.824219 281.617188 L 222.824219 282.429688 L 220.117188 282.429688 L 220.117188 284.207031 L 222.996094 284.207031 L 222.996094 285.046875 Z M 219.226562 285.046875 "/>
<path fill="#307FE2" fill-rule="nonzero" d="M 111.082031 280.707031 C 111.816406 280.707031 112.410156 281.300781 112.410156 282.03125 C 112.410156 282.765625 111.816406 283.359375 111.082031 283.359375 C 110.351562 283.359375 109.757812 282.765625 109.757812 282.03125 C 109.757812 281.300781 110.351562 280.707031 111.082031 280.707031 "/>
</g></svg>